<svg width="25" height="25" viewBox="0 0 25 25" fill="none" xmlns="http://www.w3.org/2000/svg">
<path d="M14.1042 18.7502C13.6112 18.7508 13.133 18.5816 12.75 18.2711L7.43755 13.8857C7.22922 13.7198 7.06098 13.5091 6.94534 13.2692C6.82971 13.0294 6.76965 12.7665 6.76965 12.5002C6.76965 12.234 6.82971 11.9711 6.94534 11.7312C7.06098 11.4914 7.22922 11.2807 7.43755 11.1148L12.75 6.72941C13.0699 6.47315 13.4553 6.31189 13.8623 6.26401C14.2693 6.21612 14.6816 6.28354 15.0521 6.45857C15.3742 6.60053 15.6486 6.83219 15.8425 7.12588C16.0365 7.41958 16.1418 7.76289 16.1459 8.11482V16.8857C16.1418 17.2376 16.0365 17.5809 15.8425 17.8746C15.6486 18.1683 15.3742 18.3999 15.0521 18.5419C14.7544 18.6773 14.4313 18.7483 14.1042 18.7502V18.7502ZM9.04172 12.5002L14.0625 16.6669V8.42732L9.04172 12.5002Z" fill="#B1C7D5"/>
</svg>
