<svg width="150" height="44" viewBox="0 0 150 44" fill="none" xmlns="http://www.w3.org/2000/svg">
<path d="M49.075 9.45H46.27V7.5H54.04V9.45H51.25V18H49.075V9.45ZM57.7857 17.985H55.5357V7.485H60.0207C61.1807 7.485 62.0907 7.86 62.7507 8.61C63.4207 9.36 63.7557 10.26 63.7557 11.31C63.7557 12.34 63.4207 13.215 62.7507 13.935C62.0807 14.655 61.1707 15.015 60.0207 15.015H57.7857V17.985ZM57.7407 13.095H60.0207C60.4907 13.095 60.8707 12.92 61.1607 12.57C61.4607 12.21 61.6107 11.77 61.6107 11.25C61.6107 10.74 61.4657 10.315 61.1757 9.975C60.8857 9.625 60.5007 9.45 60.0207 9.45C60.0207 9.44 59.6407 9.44 58.8807 9.45H57.7407V13.095ZM70.9299 16.26H66.5649L65.7549 18H63.4149V17.7L68.2449 7.41H69.2799L74.0799 17.7V18H71.7549L70.9299 16.26ZM68.7549 10.905L67.2999 14.37H70.2099L68.7549 10.905ZM81.6578 7.5V9.465H77.4878V11.595H81.3878V13.56H77.4878V15.96H81.7778V18H75.2228V7.5H81.6578ZM86.0418 7.5V11.835C86.9918 11.835 87.5968 11.77 87.8568 11.64C88.1068 11.5 88.3018 11.265 88.4418 10.935C88.5818 10.595 88.7368 10.07 88.9068 9.36C89.3568 7.73 90.5518 7.115 92.4918 7.515V9.045C92.0618 9.005 91.7268 9.06 91.4868 9.21C91.2568 9.36 91.0868 9.63 90.9768 10.02C90.6268 11.35 90.1868 12.28 89.6568 12.81L92.8668 17.67V18H90.3318L87.6918 13.68C87.4218 13.75 86.8718 13.785 86.0418 13.785V18H83.8068V7.5H86.0418ZM96.2137 9.45H93.4087V7.5H101.179V9.45H98.3887V18H96.2137V9.45ZM112.58 12.75C112.58 14.35 112.08 15.655 111.08 16.665C110.08 17.675 108.785 18.18 107.195 18.18C105.705 18.18 104.44 17.7 103.4 16.74C102.37 15.77 101.855 14.44 101.855 12.75C101.855 11.62 102.11 10.635 102.62 9.795C103.14 8.955 103.8 8.335 104.6 7.935C105.41 7.535 106.29 7.335 107.24 7.335C107.94 7.335 108.605 7.455 109.235 7.695C109.865 7.935 110.43 8.275 110.93 8.715C111.44 9.155 111.84 9.725 112.13 10.425C112.43 11.125 112.58 11.9 112.58 12.75ZM104.12 12.75C104.12 13.84 104.415 14.675 105.005 15.255C105.595 15.835 106.335 16.125 107.225 16.125C108.105 16.125 108.845 15.835 109.445 15.255C110.045 14.675 110.345 13.84 110.345 12.75C110.345 11.69 110.045 10.87 109.445 10.29C108.845 9.7 108.11 9.405 107.24 9.405C106.36 9.405 105.62 9.7 105.02 10.29C104.42 10.87 104.12 11.69 104.12 12.75ZM116.687 17.985H114.437V7.485H118.922C120.082 7.485 120.992 7.86 121.652 8.61C122.322 9.36 122.657 10.26 122.657 11.31C122.657 12.34 122.322 13.215 121.652 13.935C120.982 14.655 120.072 15.015 118.922 15.015H116.687V17.985ZM116.642 13.095H118.922C119.392 13.095 119.772 12.92 120.062 12.57C120.362 12.21 120.512 11.77 120.512 11.25C120.512 10.74 120.367 10.315 120.077 9.975C119.787 9.625 119.402 9.45 118.922 9.45C118.922 9.44 118.542 9.44 117.782 9.45H116.642V13.095ZM130.866 12L124.926 18.03H124.251V7.5H126.501V13.455L132.396 7.455H133.101V18H130.866V12ZM134.78 17.67L137.135 14.175C136.545 13.875 136.085 13.455 135.755 12.915C135.435 12.365 135.27 11.755 135.26 11.085C135.26 10.095 135.59 9.25 136.25 8.55C136.92 7.85 137.83 7.5 138.98 7.5H143.45V18H141.2V14.52H139.325L137.165 18H134.78V17.67ZM138.98 12.675H141.23V9.45H138.98C138.51 9.45 138.135 9.605 137.855 9.915C137.575 10.215 137.435 10.59 137.435 11.04C137.435 11.5 137.575 11.89 137.855 12.21C138.135 12.52 138.51 12.675 138.98 12.675ZM59.626 29.7C59.626 31.62 59.026 33.186 57.826 34.398C56.626 35.61 55.072 36.216 53.164 36.216C51.376 36.216 49.858 35.64 48.61 34.488C47.374 33.324 46.756 31.728 46.756 29.7C46.756 28.344 47.062 27.162 47.674 26.154C48.298 25.146 49.09 24.402 50.05 23.922C51.022 23.442 52.078 23.202 53.218 23.202C54.058 23.202 54.856 23.346 55.612 23.634C56.368 23.922 57.046 24.33 57.646 24.858C58.258 25.386 58.738 26.07 59.086 26.91C59.446 27.75 59.626 28.68 59.626 29.7ZM49.474 29.7C49.474 31.008 49.828 32.01 50.536 32.706C51.244 33.402 52.132 33.75 53.2 33.75C54.256 33.75 55.144 33.402 55.864 32.706C56.584 32.01 56.944 31.008 56.944 29.7C56.944 28.428 56.584 27.444 55.864 26.748C55.144 26.04 54.262 25.686 53.218 25.686C52.162 25.686 51.274 26.04 50.554 26.748C49.834 27.444 49.474 28.428 49.474 29.7ZM67.2009 30.33H64.4829V33.642H67.2009C67.7889 33.642 68.2449 33.48 68.5689 33.156C68.8929 32.832 69.0549 32.436 69.0549 31.968C69.0549 31.5 68.8929 31.11 68.5689 30.798C68.2449 30.486 67.7889 30.33 67.2009 30.33ZM64.4829 25.758V28.08H67.2189C68.6589 28.08 69.7629 28.44 70.5309 29.16C71.2989 29.88 71.6829 30.81 71.6829 31.95C71.6829 33.114 71.2929 34.08 70.5129 34.848C69.7449 35.616 68.6469 36 67.2189 36H61.8369V23.4H70.6569V25.758H64.4829ZM76.3109 32.832L76.8509 31.698L72.4049 23.742V23.4H75.3749L78.2369 28.962H78.3269L80.8829 23.4H83.7449V23.67L78.9929 33.282C78.6809 33.966 78.3689 34.524 78.0569 34.956C77.7449 35.388 77.3669 35.742 76.9229 36.018C76.4909 36.306 75.9749 36.444 75.3749 36.432C74.7869 36.42 74.1089 36.27 73.3409 35.982L73.7009 33.786C74.3129 34.062 74.8289 34.128 75.2489 33.984C75.6689 33.84 76.0229 33.456 76.3109 32.832ZM93.9102 36H91.2462V31.5C88.8462 31.8 87.0942 31.476 85.9902 30.528C84.8982 29.58 84.3522 27.846 84.3522 25.326V23.418H87.0702V25.326C87.0702 26.97 87.3582 28.05 87.9342 28.566C88.5102 29.082 89.6142 29.226 91.2462 28.998V23.418H93.9102V36ZM104.575 23.4V25.758H99.5705V28.314H104.251V30.672H99.5705V33.552H104.719V36H96.8525V23.4H104.575ZM117.359 36H114.659V30.672H109.835V36H107.153V23.4H109.835V28.206H114.659V23.4H117.359V36ZM128.205 28.8L121.077 36.036H120.267V23.4H122.967V30.546L130.041 23.346H130.887V36H128.205V28.8ZM132.902 35.604L135.728 31.41C135.02 31.05 134.468 30.546 134.072 29.898C133.688 29.238 133.49 28.506 133.478 27.702C133.478 26.514 133.874 25.5 134.666 24.66C135.47 23.82 136.562 23.4 137.942 23.4H143.306V36H140.606V31.824H138.356L135.764 36H132.902V35.604ZM137.942 29.61H140.642V25.74H137.942C137.378 25.74 136.928 25.926 136.592 26.298C136.256 26.658 136.088 27.108 136.088 27.648C136.088 28.2 136.256 28.668 136.592 29.052C136.928 29.424 137.378 29.61 137.942 29.61Z" fill="white"/>
<path d="M20.5 7L2 16.6667L8.72727 20.1789V29.8456L20.5 36L32.2727 29.8456V20.1789L35.6364 18.4228V29.5556H39V16.6667L20.5 7ZM31.97 16.6667L20.5 22.66L9.03 16.6667L20.5 10.6733L31.97 16.6667ZM28.9091 27.9444L20.5 32.3267L12.0909 27.9444V21.935L20.5 26.3333L28.9091 21.935V27.9444Z" fill="white"/>
<path d="M20.5 7L2 16.6667L8.72727 20.1789V29.8456L20.5 36L32.2727 29.8456V20.1789L35.6364 18.4228V29.5556H39V16.6667L20.5 7ZM31.97 16.6667L20.5 22.66L9.03 16.6667L20.5 10.6733L31.97 16.6667ZM28.9091 27.9444L20.5 32.3267L12.0909 27.9444V21.935L20.5 26.3333L28.9091 21.935V27.9444Z" fill="url(#paint0_linear_3764_15409)"/>
<defs>
<linearGradient id="paint0_linear_3764_15409" x1="9" y1="30" x2="27.5" y2="17" gradientUnits="userSpaceOnUse">
<stop stop-color="#2183AA"/>
<stop offset="0.802083" stop-color="white" stop-opacity="0"/>
</linearGradient>
</defs>
</svg>
